<svg width="22" height="22" viewBox="0 0 22 22" fill="none" xmlns="http://www.w3.org/2000/svg">
<path fill-rule="evenodd" clip-rule="evenodd" d="M20.9787 6.79043C21.5267 8.12501 21.8088 9.55541 21.8088 10.9999L10.9044 11L10.9044 0C12.3364 0 13.7543 0.284473 15.0773 0.837275C16.4003 1.39008 17.6024 2.20033 18.6149 3.22178C19.6275 4.24322 20.4307 5.45585 20.9787 6.79043ZM10.9044 11L21.8088 21.9999H10.9044L10.9044 11ZM0 0H10.9044C10.9044 1.44454 10.6223 2.87494 10.0743 4.20952C9.52634 5.5441 8.72313 6.75673 7.71056 7.77817C6.698 8.79962 5.49591 9.60987 4.17293 10.1627C2.86007 10.7112 1.45369 10.9956 0.0328896 11H10.9044C10.9044 12.4445 10.6223 13.8749 10.0743 15.2095C9.52634 16.544 8.72313 17.7567 7.71056 18.7781C6.698 19.7996 5.49591 20.6098 4.17293 21.1626C2.84995 21.7154 1.43198 21.9999 0 21.9999V0Z" fill="#FF6A3A"/>
</svg>
