<svg width="750" height="179" viewBox="0 0 750 179" fill="none" xmlns="http://www.w3.org/2000/svg">
<path d="M331.454 147.412C338.81 147.412 343.549 151.298 344.796 156.957L340.389 157.885C339.558 154 336.316 151.423 331.495 151.423C325.387 151.424 321.812 155.436 321.812 163.121C321.812 171.144 325.554 174.946 331.206 174.946C336.65 174.945 340.514 171.525 340.556 166.12H332.286V162.489H345.252V178.577H341.679L341.18 172.833C339.767 176.507 335.735 179 330.499 179C322.021 179 317.241 172.75 317.241 163.334C317.241 153.579 322.561 147.412 331.454 147.412ZM637.801 147.412C645.198 147.412 649.937 151.593 650.809 157.843L646.361 158.477C645.53 153.663 642.205 151.423 637.759 151.423C631.317 151.424 628.284 156.112 628.284 163.163C628.284 171.187 632.066 174.946 637.718 174.946C642.829 174.946 645.74 172.116 646.488 167.851L650.85 168.359C649.936 175.157 644.7 179 637.594 179C628.7 179 623.711 172.665 623.711 163.163C623.711 153.071 629.364 147.412 637.801 147.412ZM244.689 178.577H240.075L237.042 170.724H222.744L219.67 178.577H215.139L227.357 147.792H232.47L244.689 178.577ZM444.462 151.635H427.174V160.969H442.759V164.684H427.174V174.693H445.709V178.577H422.851V147.792H444.462V151.635ZM543.095 172.538V147.792H547.376V178.577H542.18L525.516 153.155V178.577H521.193V147.792H527.011L543.095 172.538ZM736.326 161.771L744.971 147.792H750L738.446 165.74V178.577H734.125V165.74L722.569 147.792H727.724L736.326 161.771ZM229.893 152.058C229.353 153.705 228.853 155.098 228.313 156.449L224.241 166.88H235.545L231.472 156.449C230.931 155.098 230.433 153.704 229.893 152.058ZM278.024 23.9438H264.429C250.349 23.9438 238.933 35.4308 238.933 49.599V124.849H215.139V49.599C215.139 22.2071 237.208 4.40738e-07 264.429 0H278.024V23.9438ZM337.416 0C370.386 0.000267418 396.806 28.2995 396.806 62.5434C396.806 64.4453 396.807 66.3483 396.582 68.2502H298.573C301.283 88.2257 317.544 103.686 337.416 103.686C352.997 103.685 366.322 94.1704 372.645 80.3778L390.257 90.8426C380.321 111.056 360.449 124.849 337.416 124.849C303.317 124.849 278.024 95.5984 278.024 62.5434C278.024 57.5495 278.477 52.3173 279.832 47.0856C286.381 19.9758 309.64 5.70267e-07 337.416 0ZM516.932 70.6975H516.884C515.708 100.804 491.098 124.849 460.906 124.849C429.964 124.849 404.88 99.5942 404.88 68.4412C404.88 37.2881 429.964 12.0336 460.906 12.0336C473.519 12.0336 485.158 16.2306 494.522 23.3122V0H516.932V70.6975ZM586.404 0C620.647 0 648.406 27.9483 648.406 62.4244C648.406 96.9004 620.647 124.849 586.404 124.849C552.162 124.849 524.402 96.9004 524.402 62.4244C524.402 27.9483 552.162 0 586.404 0ZM705.179 62.4244L750 124.849H723.108L691.733 81.1505L660.359 124.849H633.466L676.702 64.6307L676.79 64.6807L691.704 43.6571L691.733 43.6968L723.108 0H750L705.179 62.4244ZM460.906 34.5966C442.341 34.5966 427.291 49.7494 427.291 68.4412C427.291 87.133 442.341 102.286 460.906 102.286C479.472 102.286 494.522 87.133 494.522 68.4412C494.522 49.7494 479.472 34.5966 460.906 34.5966ZM586.404 22.563C564.539 22.563 546.813 40.4096 546.813 62.4244C546.813 84.4392 564.539 102.286 586.404 102.286C608.27 102.286 625.996 84.4392 625.996 62.4244C625.996 40.4096 608.27 22.563 586.404 22.563ZM337.416 21.1631C319.802 21.1631 305.122 33.2922 299.928 49.7004H374.675C374.449 48.7498 374 47.7986 373.774 47.0856C367.903 31.8662 353.901 21.1633 337.416 21.1631ZM680.464 28.0025L666.502 46.0118L633.466 0H660.359L680.464 28.0025Z" fill="#111111"/>
<path fill-rule="evenodd" clip-rule="evenodd" d="M171.022 55.2498C175.49 66.1085 177.789 77.7467 177.789 89.5L88.8944 89.5L88.8944 0.000420204C100.568 0.000420204 112.128 2.315 122.913 6.81279C133.698 11.3106 143.498 17.9031 151.752 26.214C160.007 34.5248 166.555 44.3912 171.022 55.2498ZM88.8944 89.5L177.789 179H88.8944L88.8944 89.5ZM0 0.000420204H88.8944C88.8944 11.7537 86.5951 23.3919 82.1277 34.2506C77.6604 45.1092 71.1125 54.9756 62.8579 63.2865C54.6032 71.5973 44.8036 78.1898 34.0184 82.6876C23.3158 87.151 11.8507 89.4648 0.268122 89.5H88.8944C88.8944 101.253 86.5951 112.892 82.1277 123.75C77.6604 134.609 71.1125 144.475 62.8578 152.786C54.6032 161.097 44.8036 167.689 34.0184 172.187C23.2333 176.685 11.6738 179 0 179V0.000420204Z" fill="#FF6A3A"/>
</svg>
